<?xml version="1.0" encoding="UTF-8" standalone="no"?>
<svg
   xmlns:dc="http://purl.org/dc/elements/1.1/"
   xmlns:cc="http://creativecommons.org/ns#"
   xmlns:rdf="http://www.w3.org/1999/02/22-rdf-syntax-ns#"
   xmlns:svg="http://www.w3.org/2000/svg"
   xmlns="http://www.w3.org/2000/svg"
   xmlns:sodipodi="http://sodipodi.sourceforge.net/DTD/sodipodi-0.dtd"
   xmlns:inkscape="http://www.inkscape.org/namespaces/inkscape"
   height="36"
   version="1.1"
   viewBox="0 0 36 36"
   width="36"
   id="svg2"
   inkscape:version="0.91pre2 r13516"
   sodipodi:docname="maplocation_36x36_blue_alpha255.svg">
  <metadata
     id="metadata16">
    <rdf:RDF>
      <cc:Work
         rdf:about="">
        <dc:format>image/svg+xml</dc:format>
        <dc:type
           rdf:resource="http://purl.org/dc/dcmitype/StillImage" />
        <dc:title></dc:title>
      </cc:Work>
    </rdf:RDF>
  </metadata>
  <sodipodi:namedview
     pagecolor="#2196f3"
     bordercolor="#666666"
     borderopacity="1"
     objecttolerance="10"
     gridtolerance="10"
     guidetolerance="10"
     inkscape:pageopacity="1"
     inkscape:pageshadow="2"
     inkscape:window-width="2560"
     inkscape:window-height="1377"
     id="namedview14"
     showgrid="false"
     inkscape:zoom="9.8333333"
     inkscape:cx="-16.627119"
     inkscape:cy="12"
     inkscape:window-x="-8"
     inkscape:window-y="-8"
     inkscape:window-maximized="1"
     inkscape:current-layer="svg2" />
  <desc
     id="desc6" />
  <defs
     id="defs8" />
  <rect
     style="opacity:1;fill:#2196f3;fill-opacity:1;stroke:none;stroke-width:5;stroke-miterlimit:1;stroke-dasharray:none;stroke-opacity:1"
     id="rect4147"
     width="36.101696"
     height="36.101696"
     x="0.050846286"
     y="0.050846837" />
  <g
     id="miu"
     style="fill:#fffff9;fill-opacity:1;fill-rule:evenodd;stroke:none;stroke-width:1"
     transform="matrix(1.2819722,0,0,1.2819722,7.1032363,2.6163336)">
    <g
       id="Artboard-1"
       transform="translate(-471,-443)"
       style="fill:#fffff9;fill-opacity:1">
      <g
         id="slice"
         transform="translate(215,119)"
         style="fill:#fffff9;fill-opacity:1" />
      <path
         d="m 479.5,466 c 0,0 7.5,-9.87228 7.5,-14.18718 0,-4.3149 -2.4812,-7.81282 -7.5,-7.81282 -5.0188,0 -7.5,3.49792 -7.5,7.81282 0,4.3149 7.5,14.18718 7.5,14.18718 l 0,0 z m 0,-11.5 c 2.20914,0 4,-1.79086 4,-4 0,-2.20914 -1.79086,-4 -4,-4 -2.20914,0 -4,1.79086 -4,4 0,2.20914 1.79086,4 4,4 l 0,0 z"
         id="map-location-pin-map-marker-glyph"
         inkscape:connector-curvature="0"
         style="fill:#fffff9;fill-opacity:1" />
    </g>
  </g>
</svg>
